HIERARCHY
ROOT root
{
	OFFSET 0.000000 0.000000 0.000000
	CHANNELS 6 Xposition Yposition Zposition Zrotation Yrotation Xrotation
	JOINT lhip
	{
		OFFSET 0.058581 -0.082280 -0.017664
		CHANNELS 3 Zrotation Yrotation Xrotation
		JOINT lknee
		{
			OFFSET 0.043451 -0.386469 0.008037
			CHANNELS 3 Zrotation Yrotation Xrotation
			JOINT lankle
			{
				OFFSET -0.014790 -0.426874 -0.037428
				CHANNELS 3 Zrotation Yrotation Xrotation
				JOINT ltoe
				{
					OFFSET 0.041054 -0.060286 0.122042
					CHANNELS 3 Zrotation Yrotation Xrotation
					End Site
					{
						OFFSET 0.000000 0.000000 0.000000
					}
				}
			}
		}
	}
	JOINT rhip
	{
		OFFSET -0.060310 -0.090513 -0.013543
		CHANNELS 3 Zrotation Yrotation Xrotation
		JOINT rknee
		{
			OFFSET -0.043257 -0.383688 -0.004843
			CHANNELS 3 Zrotation Yrotation Xrotation
			JOINT rankle
			{
				OFFSET 0.019056 -0.420046 -0.034562
				CHANNELS 3 Zrotation Yrotation Xrotation
				JOINT rtoe
				{
					OFFSET -0.034840 -0.062106 0.130323
					CHANNELS 3 Zrotation Yrotation Xrotation
					End Site
					{
						OFFSET 0.000000 0.000000 0.000000
					}
				}
			}
		}
	}
	JOINT lowerback
	{
		OFFSET 0.004439 0.124404 -0.038385
		CHANNELS 3 Zrotation Yrotation Xrotation
		JOINT upperback
		{
			OFFSET 0.004488 0.137956 0.026820
			CHANNELS 3 Zrotation Yrotation Xrotation
			JOINT chest
			{
				OFFSET -0.002265 0.056032 0.002855
				CHANNELS 3 Zrotation Yrotation Xrotation
				JOINT lowerneck
				{
					OFFSET -0.013390 0.211636 -0.033468
					CHANNELS 3 Zrotation Yrotation Xrotation
					JOINT upperneck
					{
						OFFSET 0.010113 0.088937 0.050410
						CHANNELS 3 Zrotation Yrotation Xrotation
						End Site
						{
							OFFSET 0.000000 0.000000 0.000000
						}
					}
				}
				JOINT lclavicle
				{
					OFFSET 0.071702 0.114000 -0.018898
					CHANNELS 3 Zrotation Yrotation Xrotation
					JOINT lshoulder
					{
						OFFSET 0.122921 0.045205 -0.019046
						CHANNELS 3 Zrotation Yrotation Xrotation
						JOINT lelbow
						{
							OFFSET 0.255332 -0.015649 -0.022946
							CHANNELS 3 Zrotation Yrotation Xrotation
							JOINT lwrist
							{
								OFFSET 0.265709 0.012698 -0.007375
								CHANNELS 3 Zrotation Yrotation Xrotation
								End Site
								{
									OFFSET 0.000000 0.000000 0.000000
								}
							}
						}
					}
				}
				JOINT rclavicle
				{
					OFFSET -0.082954 0.112472 -0.023707
					CHANNELS 3 Zrotation Yrotation Xrotation
					JOINT rshoulder
					{
						OFFSET -0.113228 0.046853 -0.008472
						CHANNELS 3 Zrotation Yrotation Xrotation
						JOINT relbow
						{
							OFFSET -0.260127 -0.014369 -0.031269
							CHANNELS 3 Zrotation Yrotation Xrotation
							JOINT rwrist
							{
								OFFSET -0.269108 0.006794 -0.006027
								CHANNELS 3 Zrotation Yrotation Xrotation
								End Site
								{
									OFFSET 0.000000 0.000000 0.000000
								}
							}
						}
					}
				}
			}
		}
	}
}
MOTION
Frames: 13
Frame Time: 0.033333
0.284441 -0.230945 0.943418 178.343266 -0.109262 91.805494 5.887339 -2.329521 -25.934103 -8.468462 -1.283925 31.563396 2.534754 1.934480 -15.511781 0.000000 -0.000000 0.000000 -5.824812 -3.859961 -26.961051 -0.703193 -7.139339 32.750600 2.364218 1.091388 -14.374746 0.000000 -0.000000 0.000000 2.312143 1.924444 22.852829 1.506618 -4.046843 8.579103 1.529427 -1.183960 1.208477 -0.348069 10.470632 27.551409 4.347416 8.364094 12.013404 -13.321168 -18.626992 1.748678 -71.436262 -18.715231 25.553304 -10.215938 -54.419430 18.209912 -9.585483 8.208367 -43.583949 7.020783 17.818051 2.314265 72.115689 19.103634 26.406955 1.581212 50.463681 0.768274 -1.102669 -8.060530 -59.427017 
0.284072 -0.231226 0.943637 178.070813 -0.080406 91.841516 5.933096 -2.356288 -25.895230 -8.456752 -1.255322 31.475831 2.565195 2.112212 -15.515684 0.000000 -0.000000 0.000000 -5.799505 -3.760096 -26.963897 -0.617423 -7.039690 32.548896 2.376252 1.107195 -14.213687 0.000000 -0.000000 0.000000 2.243739 1.984897 22.744487 1.457517 -4.055935 8.562942 1.488099 -1.266246 1.315103 -0.292198 10.612346 27.455847 4.257982 8.365188 12.133269 -13.262274 -18.510014 1.603302 -71.372375 -18.827354 25.683681 -10.584259 -54.404434 18.426342 -9.500433 8.315135 -43.620431 6.880500 17.635911 2.161079 72.262866 19.122881 26.614662 1.533365 50.340894 0.734207 -1.050918 -7.953558 -59.376207 
0.283716 -0.231471 0.944164 177.802045 0.019359 91.818137 5.987889 -2.223840 -25.858169 -8.395344 -1.077935 31.512913 2.709419 2.250225 -15.487117 0.000000 -0.000000 0.000000 -5.635796 -3.674775 -26.839366 -0.548006 -6.790555 32.212300 2.323982 1.028148 -14.059480 0.000000 -0.000000 0.000000 2.156725 1.912042 22.727497 1.433223 -4.097321 8.523541 1.474739 -1.322766 1.357620 -0.346786 10.776512 27.531844 4.192191 8.744687 12.233597 -13.435869 -18.450565 1.745129 -71.202044 -19.019100 25.555278 -10.773213 -54.318477 18.444819 -9.375679 8.448195 -43.354834 7.052912 17.691765 2.356090 72.073350 19.321518 26.613862 1.492827 50.260409 0.421497 -1.702160 -8.042002 -59.118892 
0.283344 -0.231758 0.944443 177.528732 0.106590 91.877205 6.059657 -2.203600 -25.885577 -8.287237 -1.054301 31.479898 2.592122 2.279873 -15.516489 0.000000 -0.000000 0.000000 -5.548658 -3.475664 -26.890590 -0.567032 -6.763229 32.054131 2.382851 1.100552 -13.935297 0.000000 -0.000000 0.000000 2.141010 1.888707 22.650819 1.392721 -4.086403 8.453163 1.420579 -1.428605 1.402008 -0.291379 10.932018 27.491461 4.147389 8.652391 12.257256 -13.445363 -18.465775 1.781110 -71.269945 -19.135084 25.641779 -10.774509 -54.204863 18.731823 -9.749880 8.307497 -43.509635 6.968206 17.498275 2.214999 72.238601 19.271829 26.726023 1.508124 50.253567 0.581074 -2.157221 -8.210286 -59.335710 
0.283073 -0.231995 0.944578 177.247309 0.201263 91.897122 6.173420 -2.148605 -25.874286 -8.233173 -0.850614 31.476781 2.617368 2.374504 -15.479779 0.000000 -0.000000 0.000000 -5.506496 -3.387887 -26.892262 -0.431157 -6.728429 31.889219 2.490489 1.257787 -13.778977 0.000000 -0.000000 0.000000 2.005598 1.872025 22.548986 1.378886 -4.163161 8.566710 1.454510 -1.438869 1.367889 -0.428755 10.985281 27.563319 4.221545 8.930881 11.963987 -13.427083 -18.651000 1.843114 -71.305554 -19.149906 25.627626 -10.447555 -54.211426 18.296023 -9.772155 8.313476 -43.514985 6.871693 17.547933 2.075657 72.155676 19.068639 26.627444 1.516772 50.373502 0.684913 -1.797468 -8.224322 -59.262993 
0.282866 -0.232275 0.944600 176.822590 0.281606 91.879572 6.306771 -2.021290 -25.790617 -7.976975 -0.377004 31.469765 2.349928 2.027222 -15.620121 0.000000 -0.000000 0.000000 -5.426419 -3.032126 -26.921768 -0.607355 -6.870000 31.853061 2.407321 1.660579 -13.752557 0.000000 -0.000000 0.000000 1.924959 1.855649 22.569868 1.317268 -4.115557 8.675421 1.323808 -1.498048 1.186474 0.139863 11.576115 27.566396 3.955094 8.333766 12.296950 -13.403406 -18.542653 1.929613 -71.282256 -19.309408 25.179238 -10.540964 -53.873215 19.150623 -15.111133 4.068763 -44.150606 6.837655 17.307950 2.269300 72.618872 19.220532 26.624221 0.783634 50.211623 1.012647 -0.229270 -7.252622 -59.817354 
0.282303 -0.232621 0.944701 176.534943 0.271133 91.955791 6.268401 -1.961361 -25.828199 -8.164921 -0.597424 31.405922 2.686887 2.581442 -15.465552 0.000000 -0.000000 0.000000 -5.299838 -3.042099 -27.119740 -0.451096 -6.241851 31.813549 2.339600 1.283862 -13.659624 0.000000 -0.000000 0.000000 1.745397 1.745577 22.553460 1.195070 -4.167785 8.452999 1.302446 -1.464494 1.316195 -0.494220 11.233108 27.495817 4.367306 8.918529 12.160675 -13.261252 -18.765054 1.736767 -71.396181 -18.994450 25.746568 -9.945848 -54.600515 18.010721 -10.070643 9.328163 -44.247421 6.751119 17.421546 1.965504 72.665371 18.792604 26.810019 0.494584 50.559841 0.159798 -1.239231 -8.698910 -58.895883 
0.281657 -0.232514 0.944854 176.334628 0.266635 91.836537 6.226836 -1.959861 -25.610380 -8.057071 -0.421382 31.349452 2.668806 2.505476 -15.537209 0.000000 -0.000000 0.000000 -5.285938 -2.936644 -26.966969 -0.556926 -6.171693 31.688207 2.519230 1.419238 -13.470606 0.000000 -0.000000 0.000000 1.638101 1.655042 22.507941 1.131219 -4.337349 8.663416 1.276475 -1.481128 1.247369 -0.538180 11.375628 27.580947 4.241628 9.080319 12.095791 -13.363113 -18.843874 1.873546 -71.331609 -19.230247 25.420226 -9.607544 -54.279327 17.418116 -10.625959 8.716746 -42.962185 6.750179 17.495192 2.008321 72.753942 18.880779 26.731137 0.211322 50.384961 -0.306419 -1.451978 -8.480306 -58.902870 
0.281060 -0.232440 0.945039 176.212588 0.308976 91.688346 6.137045 -1.889162 -25.431754 -7.757443 -0.261180 31.420249 2.509909 2.269110 -15.697628 0.000000 -0.000000 0.000000 -5.236229 -2.859489 -26.789567 -0.736222 -6.257036 31.642643 2.514166 1.718634 -13.488308 0.000000 -0.000000 0.000000 1.705001 1.539961 22.667116 1.023504 -4.444517 8.721222 1.203748 -1.659680 1.045967 -0.353417 11.570858 27.665177 4.052060 8.960562 12.332114 -13.412373 -18.897724 2.001807 -71.326935 -19.261242 25.050322 -9.277647 -53.950639 17.827938 -13.281359 6.699930 -42.612386 6.649493 17.413592 2.095490 72.989610 18.949756 26.646525 0.060206 50.245230 -0.164315 -1.136379 -8.162976 -59.024596 
0.280612 -0.232461 0.945128 175.976548 0.312731 91.646899 6.166860 -1.734238 -25.336335 -7.735333 0.018779 31.390813 2.463228 2.143035 -15.698932 0.000000 -0.000000 0.000000 -5.269184 -2.753675 -26.759517 -0.815003 -6.370947 31.584331 2.587161 2.027766 -13.404737 0.000000 -0.000000 0.000000 1.589606 1.485433 22.648362 0.993048 -4.533313 8.834675 1.165420 -1.678828 0.935636 -0.202735 11.878485 27.800994 3.956048 8.859379 12.345414 -13.478276 -18.872005 1.989880 -71.341325 -19.368864 24.874780 -9.171374 -53.610258 17.857211 -14.558534 5.632574 -42.288572 6.719407 17.230353 2.146507 73.049496 18.926154 26.599851 -0.131750 50.305269 0.011625 -0.968918 -8.322164 -58.789432 
0.279962 -0.232572 0.945237 175.741949 0.307314 91.633066 6.105634 -1.760035 -25.243131 -7.684562 -0.089875 31.303763 2.538603 2.274896 -15.698582 0.000000 -0.000000 0.000000 -5.266055 -2.767360 -26.752555 -0.746205 -6.206978 31.468551 2.586364 2.073440 -13.367307 0.000000 -0.000000 0.000000 1.529665 1.405560 22.604868 0.911541 -4.630584 8.775123 1.071952 -1.727892 0.980128 -0.273254 11.769892 27.763196 3.999549 8.904990 12.506180 -13.408477 -18.987193 1.966959 -71.382304 -19.402291 25.022388 -9.037124 -53.567786 17.714231 -13.975123 6.077309 -42.449765 6.677961 17.286781 2.075200 73.061435 18.788995 26.663126 -0.370953 50.297355 -0.266651 -1.018579 -8.295336 -59.028044 
0.279992 -0.232665 0.945495 175.388989 0.464488 91.662836 6.308713 -1.507329 -25.230878 -7.681707 0.107103 31.314465 2.488894 2.318234 -15.728889 0.000000 -0.000000 0.000000 -4.976763 -2.557754 -26.732209 -0.857551 -6.095920 31.232552 2.585930 2.119787 -13.179616 0.000000 -0.000000 0.000000 1.465397 1.417288 22.562238 0.919008 -4.609453 8.605929 1.082297 -1.743210 1.069337 -0.313440 11.918512 27.918672 4.049300 8.968956 12.396681 -13.533953 -19.043271 2.051197 -71.320405 -19.545520 25.037295 -9.211400 -53.348490 17.697281 -13.393762 6.207521 -42.396239 6.733497 17.182054 2.222123 72.944442 18.852120 26.590835 -0.076581 50.454641 -0.029420 -2.012205 -8.559737 -59.162907 
0.279345 -0.232719 0.945679 175.350201 0.400662 91.691989 6.165408 -1.732831 -25.269141 -7.519217 0.187542 31.332062 2.577681 2.436832 -15.686416 0.000000 -0.000000 0.000000 -5.130304 -2.850484 -26.698891 -0.689825 -6.110138 31.077406 2.645938 2.407482 -13.024546 0.000000 -0.000000 0.000000 1.352035 1.421826 22.283068 0.925089 -4.846312 8.916426 1.095034 -1.877745 1.028659 -0.331479 11.957190 27.888235 3.956504 8.936727 12.379877 -13.640313 -19.128941 2.112598 -71.175196 -19.605045 24.859308 -9.205529 -53.281545 17.748357 -14.424951 5.417722 -42.441607 6.669912 17.115787 2.144765 72.850188 18.912084 26.590806 0.091401 50.410721 0.207298 -1.892887 -8.465800 -59.174712 
